<?xml version="1.0" standalone="no"?><svg xmlns="http://www.w3.org/2000/svg" viewBox="0 0 1440 320"><path fill="#107c10" fill-opacity="1" d="M0,32L34.3,37.3C68.6,43,137,53,206,90.7C274.3,128,343,192,411,234.7C480,277,549,299,617,288C685.7,277,754,235,823,218.7C891.4,203,960,213,1029,229.3C1097.1,245,1166,267,1234,256C1302.9,245,1371,203,1406,181.3L1440,160L1440,320L1405.7,320C1371.4,320,1303,320,1234,320C1165.7,320,1097,320,1029,320C960,320,891,320,823,320C754.3,320,686,320,617,320C548.6,320,480,320,411,320C342.9,320,274,320,206,320C137.1,320,69,320,34,320L0,320Z"></path></svg>